<?xml version="1.0" encoding="utf-8"?>
<!-- Generator: Adobe Illustrator 16.0.0, SVG Export Plug-In . SVG Version: 6.00 Build 0)  -->
<!DOCTYPE svg PUBLIC "-//W3C//DTD SVG 1.1//EN" "http://www.w3.org/Graphics/SVG/1.1/DTD/svg11.dtd">
<svg version="1.1" id="Layer_1" xmlns="http://www.w3.org/2000/svg" xmlns:xlink="http://www.w3.org/1999/xlink" x="0px" y="0px"
	 width="125.803px" height="125.806px" viewBox="0 0 125.803 125.806" enable-background="new 0 0 125.803 125.806"
	 xml:space="preserve">
<g>
	<defs>
		<rect id="SVGID_1_" width="125.803" height="125.806"/>
	</defs>
	<clipPath id="SVGID_2_">
		<use xlink:href="#SVGID_1_"  overflow="visible"/>
	</clipPath>
	<path clip-path="url(#SVGID_2_)" fill="#FFFFFF" d="M122.302,83.597c2.266-6.483,3.502-13.449,3.502-20.695
		c0-7.248-1.236-14.209-3.502-20.693c-0.053-0.194-0.12-0.385-0.2-0.567C113.367,17.389,90.129,0,62.901,0
		c-27.227,0-50.464,17.389-59.2,41.642c-0.08,0.182-0.148,0.373-0.2,0.567C1.236,48.693,0,55.654,0,62.902
		c0,7.246,1.236,14.212,3.502,20.695c0.055,0.194,0.12,0.386,0.2,0.567c8.738,24.253,31.973,41.641,59.2,41.641
		c27.228,0,50.466-17.388,59.2-41.641C122.182,83.983,122.249,83.792,122.302,83.597 M62.901,116.789
		c-2.396,0-6.258-4.335-9.486-14.021c-1.558-4.674-2.803-10.048-3.712-15.893h26.398c-0.907,5.845-2.153,11.216-3.712,15.893
		C69.16,112.454,65.297,116.789,62.901,116.789 M48.608,77.859c-0.435-4.808-0.664-9.824-0.664-14.957
		c0-5.134,0.229-10.147,0.664-14.955h28.587c0.433,4.808,0.661,9.821,0.661,14.955c0,5.133-0.229,10.149-0.661,14.957H48.608z
		 M9.017,62.902c0-5.186,0.737-10.206,2.113-14.955h28.434c-0.423,4.908-0.637,9.935-0.637,14.955c0,5.021,0.214,10.05,0.637,14.957
		H11.13C9.754,73.108,9.017,68.09,9.017,62.902 M62.901,9.017c2.396,0,6.259,4.336,9.487,14.022
		c1.559,4.673,2.805,10.047,3.712,15.891H49.703c0.906-5.847,2.154-11.218,3.712-15.891C56.644,13.353,60.506,9.017,62.901,9.017
		 M86.24,47.947h28.433c1.374,4.749,2.114,9.769,2.114,14.955c0,5.188-0.74,10.209-2.114,14.957H86.24
		c0.422-4.907,0.634-9.936,0.634-14.957C86.874,57.882,86.662,52.854,86.24,47.947 M111.15,38.93H85.207
		c-1.606-11.06-4.356-20.981-8.216-28.04C91.955,14.947,104.353,25.305,111.15,38.93 M48.813,10.89
		c-3.86,7.059-6.61,16.98-8.216,28.04H14.653C21.451,25.305,33.849,14.947,48.813,10.89 M14.653,86.875h25.944
		c1.606,11.062,4.356,20.981,8.216,28.041C33.849,110.857,21.451,100.501,14.653,86.875 M76.991,114.917
		c3.859-7.06,6.609-16.979,8.216-28.041h25.943C104.353,100.501,91.955,110.857,76.991,114.917"/>
</g>
</svg>
