<?xml version="1.0" encoding="utf-8"?>
<!-- Generator: Adobe Illustrator 16.0.0, SVG Export Plug-In . SVG Version: 6.00 Build 0)  -->
<!DOCTYPE svg PUBLIC "-//W3C//DTD SVG 1.1//EN" "http://www.w3.org/Graphics/SVG/1.1/DTD/svg11.dtd">
<svg version="1.1" id="Layer_1" xmlns="http://www.w3.org/2000/svg" xmlns:xlink="http://www.w3.org/1999/xlink" x="0px" y="0px"
	 width="29.039px" height="37.678px" viewBox="0 0 29.039 37.678" enable-background="new 0 0 29.039 37.678" xml:space="preserve">
<g>
	<defs>
		<rect id="SVGID_1_" width="29.039" height="37.678"/>
	</defs>
	<clipPath id="SVGID_2_">
		<use xlink:href="#SVGID_1_"  overflow="visible"/>
	</clipPath>
	<path clip-path="url(#SVGID_2_)" fill="#FFFFFF" d="M14.519,0C6.513,0,0,6.515,0,14.521c0,5.722,2.395,11.509,6.927,16.737
		c3.384,3.904,6.739,6.116,6.88,6.208c0.216,0.143,0.464,0.213,0.711,0.213c0.248,0,0.496-0.07,0.713-0.213
		c0.141-0.092,3.496-2.304,6.881-6.208c4.531-5.228,6.927-11.015,6.927-16.737C29.039,6.515,22.526,0,14.519,0 M14.52,20.281
		c-3.178,0-5.763-2.585-5.763-5.762c0-3.178,2.585-5.763,5.763-5.763s5.763,2.586,5.763,5.763
		C20.282,17.695,17.697,20.281,14.52,20.281"/>
</g>
</svg>
