<?xml version="1.0" encoding="utf-8"?>
<!-- Generator: Adobe Illustrator 16.0.0, SVG Export Plug-In . SVG Version: 6.00 Build 0)  -->
<!DOCTYPE svg PUBLIC "-//W3C//DTD SVG 1.1//EN" "http://www.w3.org/Graphics/SVG/1.1/DTD/svg11.dtd">
<svg version="1.1" id="Layer_1" xmlns="http://www.w3.org/2000/svg" xmlns:xlink="http://www.w3.org/1999/xlink" x="0px" y="0px"
	 width="27.973px" height="27.973px" viewBox="0 0 27.973 27.973" enable-background="new 0 0 27.973 27.973" xml:space="preserve">
<g>
	<defs>
		<rect id="SVGID_1_" y="0" width="27.973" height="27.973"/>
	</defs>
	<clipPath id="SVGID_2_">
		<use xlink:href="#SVGID_1_"  overflow="visible"/>
	</clipPath>
	<path clip-path="url(#SVGID_2_)" fill="#FFFFFF" d="M0,3.295c0-0.819,0.306-1.616,0.861-2.224C1.481,0.39,2.365,0,3.286,0h4.411
		c1.675,0,3.078,1.249,3.265,2.906c0.11,0.975,0.31,1.944,0.596,2.879c0.358,1.17,0.048,2.431-0.811,3.29L8.96,10.863
		c1.873,3.423,4.727,6.278,8.15,8.15l1.788-1.788c0.857-0.857,2.118-1.169,3.29-0.81c0.935,0.285,1.902,0.485,2.878,0.596
		c1.656,0.188,2.906,1.59,2.906,3.264v4.412c0,0.92-0.39,1.806-1.07,2.426c-0.684,0.622-1.604,0.932-2.526,0.847
		c-3.165-0.291-6.221-1.13-9.084-2.494c-2.783-1.325-5.303-3.106-7.49-5.294c-2.188-2.188-3.969-4.707-5.294-7.49
		C1.145,9.818,0.305,6.762,0.014,3.596C0.004,3.496,0,3.395,0,3.295"/>
</g>
</svg>
